<svg xmlns="http://www.w3.org/2000/svg" viewBox="0 0 200 200" fill="none">
  <circle cx="100" cy="100" r="96" stroke="#5b0617" stroke-width="1.5" stroke-dasharray="4 3"/>
  <circle cx="100" cy="100" r="80" stroke="#5b0617" stroke-width="1"/>
  <circle cx="100" cy="100" r="60" stroke="#5b0617" stroke-width="1"/>
  <circle cx="100" cy="100" r="40" stroke="#5b0617" stroke-width="1"/>
  <circle cx="100" cy="100" r="20" stroke="#5b0617" stroke-width="1"/>
  <g stroke="#5b0617" stroke-width="1">
    <line x1="100" y1="4"  x2="100" y2="196"/>
    <line x1="4"   y1="100" x2="196" y2="100"/>
    <line x1="30"  y1="30"  x2="170" y2="170"/>
    <line x1="170" y1="30"  x2="30"  y2="170"/>
    <line x1="15"  y1="63"  x2="185" y2="137"/>
    <line x1="63"  y1="15"  x2="137" y2="185"/>
    <line x1="185" y1="63"  x2="15"  y2="137"/>
    <line x1="137" y1="15"  x2="63"  y2="185"/>
  </g>
  <g fill="#5b0617">
    <circle cx="100" cy="4"   r="2.5"/>
    <circle cx="100" cy="196" r="2.5"/>
    <circle cx="4"   cy="100" r="2.5"/>
    <circle cx="196" cy="100" r="2.5"/>
    <circle cx="30"  cy="30"  r="2.5"/>
    <circle cx="170" cy="30"  r="2.5"/>
    <circle cx="30"  cy="170" r="2.5"/>
    <circle cx="170" cy="170" r="2.5"/>
    <circle cx="100" cy="100" r="5"/>
    <circle cx="100" cy="20"  r="2"/>
    <circle cx="100" cy="180" r="2"/>
    <circle cx="20"  cy="100" r="2"/>
    <circle cx="180" cy="100" r="2"/>
    <circle cx="51"  cy="51"  r="2"/>
    <circle cx="149" cy="51"  r="2"/>
    <circle cx="51"  cy="149" r="2"/>
    <circle cx="149" cy="149" r="2"/>
  </g>
  <path d="M100 40 L108 65 L100 60 L92 65 Z" fill="#5b0617" opacity="0.6"/>
  <path d="M100 160 L108 135 L100 140 L92 135 Z" fill="#5b0617" opacity="0.6"/>
  <path d="M40 100 L65 108 L60 100 L65 92 Z" fill="#5b0617" opacity="0.6"/>
  <path d="M160 100 L135 108 L140 100 L135 92 Z" fill="#5b0617" opacity="0.6"/>
</svg>
